<?xml version="1.0" encoding="UTF-8" standalone="no"?>
<svg
   xmlns:dc="http://purl.org/dc/elements/1.1/"
   xmlns:cc="http://creativecommons.org/ns#"
   xmlns:rdf="http://www.w3.org/1999/02/22-rdf-syntax-ns#"
   xmlns:svg="http://www.w3.org/2000/svg"
   xmlns="http://www.w3.org/2000/svg"
   version="1.1"
   id="svg8054"
   viewBox="0 0 299.99999 67.216323"
   height="18.96994mm"
   width="84.666664mm">
  <defs
     id="defs8056" />
  <metadata
     id="metadata8059">
    <rdf:RDF>
      <cc:Work
         rdf:about="">
        <dc:format>image/svg+xml</dc:format>
        <dc:type
           rdf:resource="http://purl.org/dc/dcmitype/StillImage" />
        <dc:title></dc:title>
      </cc:Work>
    </rdf:RDF>
  </metadata>
  <g
     transform="translate(887.14288,284.1031)"
     id="layer1">
    <g
       transform="matrix(1.7147021,0,0,1.7147021,-1454.2609,-379.792)"
       id="g7995">
      <path
         d="m 422.67351,57.26872 83.0225,0 0,-1.4575 -83.0225,0 0,1.4575 z"
         style="fill:#ffffff;fill-opacity:1;fill-rule:nonzero;stroke:none"
         id="path4936" />
      <path
         d="m 422.67351,94.98997 83.0225,0 0,-1.4575 -83.0225,0 0,1.4575 z"
         style="fill:#ffffff;fill-opacity:1;fill-rule:nonzero;stroke:none"
         id="path4938" />
      <g
         id="g4948"
         transform="matrix(1.25,0,0,-1.25,434.20201,80.494595)"
         style="fill:#ffffff">
        <path
           d="m 0,0 0,-3.344 c 0,-2.852 -1.41,-4.262 -4.262,-4.262 l -0.721,0 c -2.82,0 -4.197,1.41 -4.197,4.197 l 0,3.196 2.557,0 0,-3.295 c 0,-1.18 0.558,-1.737 1.738,-1.737 l 0.524,0 c 1.181,0 1.738,0.557 1.738,1.737 l 0,3.443 c 0,1.147 -0.393,1.639 -1.148,2.196 L -6.983,4.459 C -8.688,5.672 -9.18,6.852 -9.18,8.721 l 0,2.753 c 0,2.852 1.41,4.262 4.262,4.262 l 0.656,0 c 2.819,0 4.196,-1.41 4.196,-4.196 l 0,-1.967 -2.557,0 0,2.065 c 0,1.181 -0.557,1.738 -1.738,1.738 l -0.459,0 c -1.18,0 -1.737,-0.557 -1.737,-1.738 l 0,-2.885 c 0,-1.147 0.426,-1.639 1.18,-2.196 L -2.196,4.262 C -0.525,3.049 0,1.967 0,0"
           style="fill:#ffffff;fill-opacity:1;fill-rule:nonzero;stroke:none"
           id="path4950" />
      </g>
      <g
         id="g4952"
         transform="matrix(1.25,0,0,-1.25,439.23338,89.75597)"
         style="fill:#ffffff">
        <path
           d="m 0,0 0,20.523 -3.442,0 0,2.426 9.507,0 0,-2.426 -3.442,0 L 2.623,0 0,0 Z"
           style="fill:#ffffff;fill-opacity:1;fill-rule:nonzero;stroke:none"
           id="path4954" />
      </g>
      <g
         id="g4956"
         transform="matrix(1.25,0,0,-1.25,459.74488,84.674345)"
         style="fill:#ffffff">
        <path
           d="m 0,0 c 0,-2.852 -1.41,-4.262 -4.262,-4.262 l -0.82,0 c -2.852,0 -4.262,1.41 -4.262,4.262 l 0,18.884 2.623,0 0,-19.015 c 0,-1.181 0.557,-1.738 1.738,-1.738 l 0.623,0 c 1.18,0 1.737,0.557 1.737,1.738 l 0,19.015 2.623,0 L 0,0 Z"
           style="fill:#ffffff;fill-opacity:1;fill-rule:nonzero;stroke:none"
           id="path4958" />
      </g>
      <g
         id="g4960"
         transform="matrix(1.25,0,0,-1.25,465.11401,86.76422)"
         style="fill:#ffffff">
        <path
           d="m 0,0 1.574,0 c 1.77,0 2.59,0.885 2.59,2.655 l 0,12.852 c 0,1.77 -0.82,2.655 -2.59,2.655 L 0,18.162 0,0 Z m -2.623,20.555 4.328,0 c 3.442,0 5.081,-1.639 5.081,-5.081 l 0,-12.786 c 0,-3.442 -1.639,-5.081 -5.081,-5.081 l -4.328,0 0,22.948 z"
           style="fill:#ffffff;fill-opacity:1;fill-rule:nonzero;stroke:none"
           id="path4962" />
      </g>
      <path
         d="m 478.84851,89.75622 -3.27875,0 0,-28.68625 3.27875,0 0,28.68625 z"
         style="fill:#ffffff;fill-opacity:1;fill-rule:nonzero;stroke:none"
         id="path4964" />
      <g
         id="g4966"
         transform="matrix(1.25,0,0,-1.25,487.25476,63.81547)"
         style="fill:#ffffff">
        <path
           d="m 0,0 -0.787,0 c -1.18,0 -1.737,-0.558 -1.737,-1.738 l 0,-15.08 c 0,-1.181 0.557,-1.738 1.737,-1.738 l 0.787,0 c 1.18,0 1.737,0.557 1.737,1.738 l 0,15.08 C 1.737,-0.558 1.18,0 0,0 m 0.098,-20.949 -0.983,0 c -2.852,0 -4.262,1.409 -4.262,4.262 l 0,14.818 c 0,2.852 1.41,4.262 4.262,4.262 l 0.983,0 c 2.853,0 4.262,-1.41 4.262,-4.262 l 0,-14.818 c 0,-2.853 -1.409,-4.262 -4.262,-4.262"
           style="fill:#ffffff;fill-opacity:1;fill-rule:nonzero;stroke:none"
           id="path4968" />
      </g>
      <g
         id="g4970"
         transform="matrix(1.25,0,0,-1.25,505.62513,80.494595)"
         style="fill:#ffffff">
        <path
           d="m 0,0 0,-3.344 c 0,-2.852 -1.41,-4.262 -4.262,-4.262 l -0.721,0 c -2.82,0 -4.197,1.41 -4.197,4.197 l 0,3.196 2.557,0 0,-3.295 c 0,-1.18 0.558,-1.737 1.738,-1.737 l 0.524,0 c 1.181,0 1.738,0.557 1.738,1.737 l 0,3.443 c 0,1.147 -0.393,1.639 -1.148,2.196 L -6.983,4.459 C -8.688,5.672 -9.18,6.852 -9.18,8.721 l 0,2.753 c 0,2.852 1.41,4.262 4.262,4.262 l 0.656,0 c 2.819,0 4.197,-1.41 4.197,-4.196 l 0,-1.967 -2.558,0 0,2.065 c 0,1.181 -0.557,1.738 -1.738,1.738 l -0.459,0 c -1.18,0 -1.737,-0.557 -1.737,-1.738 l 0,-2.885 c 0,-1.147 0.426,-1.639 1.18,-2.196 L -2.196,4.262 C -0.525,3.049 0,1.967 0,0"
           style="fill:#ffffff;fill-opacity:1;fill-rule:nonzero;stroke:none"
           id="path4972" />
      </g>
      <path
         d="m 330.73851,95.00497 87.0275,0 0,-39.2 -87.0275,0 0,39.2 z"
         style="fill:#e50b14;fill-opacity:1;fill-rule:nonzero;stroke:none"
         id="path4974" />
      <g
         id="g4976"
         transform="matrix(1.25,0,0,-1.25,404.49326,66.292595)">
        <path
           d="m 0,0 -3.716,0 0,-5.184 3.716,0 0,-4.19 -3.716,0 0,-5.262 3.716,0 0,-4.128 -7.825,0 0,20.8 -3.299,-20.8 -4.827,-0.013 c 0,0 -2.462,14.73 -2.466,14.761 l 0,-0.001 c 0.398,-2.38 -1.098,-4.866 -2.421,-5.847 l 2.612,-8.9 -0.004,0 -0.007,0 0.002,-0.005 -0.007,0 -4.047,0 -0.004,0 -1.992,7.595 -0.96,-0.141 0,-7.449 -0.007,0 -0.005,0 0,-0.005 -0.004,0 -7.847,0.005 -0.482,3.53 -3.218,0 -0.484,-3.53 -7.991,0 0,11.061 -1.859,-11.061 -2.203,0 -1.886,11.061 0,-11.061 -4.146,0 0,22.948 5.264,0 1.848,-11.856 1.897,11.856 5.261,0 0,-21.104 3.165,21.107 5.498,-0.003 3.061,-20.372 0.016,20.372 c 0,0 4.177,0.002 4.202,0 3.783,0 5.501,-2.775 5.986,-3.731 l -0.47,3.731 4.197,0 1.894,-13.976 1.916,13.976 L 0,4.184 0,0 Z"
           style="fill:#ffffff;fill-opacity:1;fill-rule:nonzero;stroke:none"
           id="path4978" />
      </g>
      <g
         id="g4980"
         transform="matrix(1.25,0,0,-1.25,372.96213,66.16747)"
         style="fill:#e50b14;fill-opacity:1">
        <path
           d="m 0,0 c -0.009,0 -0.016,0 -0.02,0 l 0,-7.38 c 0.324,0 0.655,0.077 0.974,0.23 0.967,0.471 1.79,1.643 1.79,3.5 C 2.744,-0.096 0.324,0.003 0,0"
           style="fill:#e50b14;fill-opacity:1;fill-rule:nonzero;stroke:none"
           id="path4982" />
      </g>
      <g
         id="g4984"
         transform="matrix(1.25,0,0,-1.25,359.09314,80.76747)"
         style="fill:#e50b14;fill-opacity:1">
        <path
           d="M 0,0 2.319,0 1.138,9.812 0,0 Z"
           style="fill:#e50b14;fill-opacity:1;fill-rule:nonzero;stroke:none"
           id="path4986" />
      </g>
      <g
         id="g4988"
         transform="matrix(1.25,0,0,-1.25,414.93101,89.741345)">
        <path
           d="m 0,0 -7.634,0 0,22.947 4.111,0 0,-18.82 L 0,4.127 0,0 Z"
           style="fill:#ffffff;fill-opacity:1;fill-rule:nonzero;stroke:none"
           id="path4990" />
      </g>
    </g>
  </g>
</svg>
